<?xml version="1.0" encoding="UTF-8" standalone="no"?>
<!DOCTYPE svg PUBLIC "-//W3C//DTD SVG 1.1//EN"
 "http://www.w3.org/Graphics/SVG/1.1/DTD/svg11.dtd">
<!-- Generated by graphviz version 2.47.3 (20210619.1520)
 -->
<!-- Title: dependencies Pages: 1 -->
<svg width="4100pt" height="247pt"
 viewBox="0.00 0.00 4100.00 246.80" xmlns="http://www.w3.org/2000/svg" xmlns:xlink="http://www.w3.org/1999/xlink">
<g id="graph0" class="graph" transform="scale(1 1) rotate(0) translate(4 242.8)">
<title>dependencies</title>
<polygon fill="white" stroke="transparent" points="-4,4 -4,-242.8 4096,-242.8 4096,4 -4,4"/>
<text text-anchor="middle" x="2046" y="-8.2" font-family="sans-serif" font-size="14.00">dependencies</text>
<g id="clust1" class="cluster">
<title>cluster_GraphsModule</title>
<polygon fill="none" stroke="black" stroke-dasharray="1,5" points="8,-32.8 8,-230.8 4084,-230.8 4084,-32.8 8,-32.8"/>
</g>
<g id="clust2" class="cluster">
<title>cluster_GraphsModule_declarations</title>
<polygon fill="none" stroke="black" points="16,-40.8 16,-92.8 4076,-92.8 4076,-40.8 16,-40.8"/>
</g>
<g id="clust28" class="cluster">
<title>cluster_GraphsModule_exports</title>
<polygon fill="none" stroke="black" points="640,-170.8 640,-222.8 3447,-222.8 3447,-170.8 640,-170.8"/>
</g>
<!-- AddProjectMemberDialogComponent -->
<g id="node1" class="node">
<title>AddProjectMemberDialogComponent</title>
<polygon fill="#ffffb3" stroke="black" points="4068.12,-84.8 3837.88,-84.8 3837.88,-48.8 4068.12,-48.8 4068.12,-84.8"/>
<text text-anchor="middle" x="3953" y="-62.6" font-family="Times,serif" font-size="14.00">AddProjectMemberDialogComponent</text>
</g>
<!-- GraphsModule -->
<g id="node25" class="node">
<title>GraphsModule</title>
<polygon fill="#8dd3c7" stroke="black" points="2017.98,-149.8 2014.98,-153.8 1993.98,-153.8 1990.98,-149.8 1918.02,-149.8 1918.02,-113.8 2017.98,-113.8 2017.98,-149.8"/>
<text text-anchor="middle" x="1968" y="-127.6" font-family="Times,serif" font-size="14.00">GraphsModule</text>
</g>
<!-- AddProjectMemberDialogComponent&#45;&gt;GraphsModule -->
<g id="edge1" class="edge">
<title>AddProjectMemberDialogComponent&#45;&gt;GraphsModule</title>
<path fill="none" stroke="black" d="M3953,-85.11C3953,-104.95 3953,-133.8 3953,-133.8 3953,-133.8 2028.06,-133.8 2028.06,-133.8"/>
<polygon fill="black" stroke="black" points="2028.06,-130.3 2018.06,-133.8 2028.06,-137.3 2028.06,-130.3"/>
</g>
<!-- CacheNodeComponent -->
<g id="node2" class="node">
<title>CacheNodeComponent</title>
<polygon fill="#ffffb3" stroke="black" points="3819.13,-84.8 3672.87,-84.8 3672.87,-48.8 3819.13,-48.8 3819.13,-84.8"/>
<text text-anchor="middle" x="3746" y="-62.6" font-family="Times,serif" font-size="14.00">CacheNodeComponent</text>
</g>
<!-- CacheNodeComponent&#45;&gt;GraphsModule -->
<g id="edge2" class="edge">
<title>CacheNodeComponent&#45;&gt;GraphsModule</title>
<path fill="none" stroke="black" d="M3746,-84.91C3746,-104.14 3746,-131.8 3746,-131.8 3746,-131.8 2028.35,-131.8 2028.35,-131.8"/>
<polygon fill="black" stroke="black" points="2028.35,-128.3 2018.35,-131.8 2028.35,-135.3 2028.35,-128.3"/>
</g>
<!-- CursorPaginatorComponent -->
<g id="node3" class="node">
<title>CursorPaginatorComponent</title>
<polygon fill="#ffffb3" stroke="black" points="3654.59,-84.8 3481.41,-84.8 3481.41,-48.8 3654.59,-48.8 3654.59,-84.8"/>
<text text-anchor="middle" x="3568" y="-62.6" font-family="Times,serif" font-size="14.00">CursorPaginatorComponent</text>
</g>
<!-- CursorPaginatorComponent&#45;&gt;GraphsModule -->
<g id="edge3" class="edge">
<title>CursorPaginatorComponent&#45;&gt;GraphsModule</title>
<path fill="none" stroke="black" d="M3568,-84.97C3568,-103.89 3568,-130.8 3568,-130.8 3568,-130.8 2028.08,-130.8 2028.08,-130.8"/>
<polygon fill="black" stroke="black" points="2028.08,-127.3 2018.08,-130.8 2028.08,-134.3 2028.08,-127.3"/>
</g>
<!-- IssueCategoryComponent -->
<g id="node4" class="node">
<title>IssueCategoryComponent</title>
<polygon fill="#ffffb3" stroke="black" points="3463.91,-84.8 3302.09,-84.8 3302.09,-48.8 3463.91,-48.8 3463.91,-84.8"/>
<text text-anchor="middle" x="3383" y="-62.6" font-family="Times,serif" font-size="14.00">IssueCategoryComponent</text>
</g>
<!-- IssueCategoryComponent&#45;&gt;GraphsModule -->
<g id="edge4" class="edge">
<title>IssueCategoryComponent&#45;&gt;GraphsModule</title>
<path fill="none" stroke="black" d="M3370.79,-85.07C3370.79,-103.36 3370.79,-128.8 3370.79,-128.8 3370.79,-128.8 2028.34,-128.8 2028.34,-128.8"/>
<polygon fill="black" stroke="black" points="2028.34,-125.3 2018.34,-128.8 2028.34,-132.3 2028.34,-125.3"/>
</g>
<!-- IssueFilterComponent -->
<g id="node5" class="node">
<title>IssueFilterComponent</title>
<polygon fill="#ffffb3" stroke="black" points="3284.43,-84.8 3143.57,-84.8 3143.57,-48.8 3284.43,-48.8 3284.43,-84.8"/>
<text text-anchor="middle" x="3214" y="-62.6" font-family="Times,serif" font-size="14.00">IssueFilterComponent</text>
</g>
<!-- IssueFilterComponent&#45;&gt;GraphsModule -->
<g id="edge5" class="edge">
<title>IssueFilterComponent&#45;&gt;GraphsModule</title>
<path fill="none" stroke="black" d="M3194.12,-84.8C3194.12,-102.48 3194.12,-126.8 3194.12,-126.8 3194.12,-126.8 2028.35,-126.8 2028.35,-126.8"/>
<polygon fill="black" stroke="black" points="2028.35,-123.3 2018.35,-126.8 2028.35,-130.3 2028.35,-123.3"/>
</g>
<!-- IssueGraphComponent -->
<g id="node6" class="node">
<title>IssueGraphComponent</title>
<polygon fill="#ffffb3" stroke="black" points="3125.58,-84.8 2980.42,-84.8 2980.42,-48.8 3125.58,-48.8 3125.58,-84.8"/>
<text text-anchor="middle" x="3053" y="-62.6" font-family="Times,serif" font-size="14.00">IssueGraphComponent</text>
</g>
<!-- IssueGraphComponent&#45;&gt;GraphsModule -->
<g id="edge6" class="edge">
<title>IssueGraphComponent&#45;&gt;GraphsModule</title>
<path fill="none" stroke="black" d="M3020.88,-84.83C3020.88,-101.86 3020.88,-124.8 3020.88,-124.8 3020.88,-124.8 2028.07,-124.8 2028.07,-124.8"/>
<polygon fill="black" stroke="black" points="2028.07,-121.3 2018.07,-124.8 2028.07,-128.3 2028.07,-121.3"/>
</g>
<!-- IssueGraphControlsComponent -->
<g id="node7" class="node">
<title>IssueGraphControlsComponent</title>
<polygon fill="#ffffb3" stroke="black" points="2962.8,-84.8 2769.2,-84.8 2769.2,-48.8 2962.8,-48.8 2962.8,-84.8"/>
<text text-anchor="middle" x="2866" y="-62.6" font-family="Times,serif" font-size="14.00">IssueGraphControlsComponent</text>
</g>
<!-- IssueGraphControlsComponent&#45;&gt;GraphsModule -->
<g id="edge7" class="edge">
<title>IssueGraphControlsComponent&#45;&gt;GraphsModule</title>
<path fill="none" stroke="black" d="M2831.88,-84.83C2831.88,-101.2 2831.88,-122.8 2831.88,-122.8 2831.88,-122.8 2028.18,-122.8 2028.18,-122.8"/>
<polygon fill="black" stroke="black" points="2028.18,-119.3 2018.18,-122.8 2028.18,-126.3 2028.18,-119.3"/>
</g>
<!-- IssueIconComponent -->
<g id="node8" class="node">
<title>IssueIconComponent</title>
<polygon fill="#ffffb3" stroke="black" points="2751.47,-84.8 2616.53,-84.8 2616.53,-48.8 2751.47,-48.8 2751.47,-84.8"/>
<text text-anchor="middle" x="2684" y="-62.6" font-family="Times,serif" font-size="14.00">IssueIconComponent</text>
</g>
<!-- IssueIconComponent&#45;&gt;GraphsModule -->
<g id="edge8" class="edge">
<title>IssueIconComponent&#45;&gt;GraphsModule</title>
<path fill="none" stroke="black" d="M2647.88,-84.81C2647.88,-100.85 2647.88,-121.8 2647.88,-121.8 2647.88,-121.8 2027.99,-121.8 2027.99,-121.8"/>
<polygon fill="black" stroke="black" points="2027.99,-118.3 2017.99,-121.8 2027.99,-125.3 2027.99,-118.3"/>
</g>
<!-- IssueItemComponent -->
<g id="node9" class="node">
<title>IssueItemComponent</title>
<polygon fill="#ffffb3" stroke="black" points="2598.75,-84.8 2463.25,-84.8 2463.25,-48.8 2598.75,-48.8 2598.75,-84.8"/>
<text text-anchor="middle" x="2531" y="-62.6" font-family="Times,serif" font-size="14.00">IssueItemComponent</text>
</g>
<!-- IssueItemComponent&#45;&gt;GraphsModule -->
<g id="edge9" class="edge">
<title>IssueItemComponent&#45;&gt;GraphsModule</title>
<path fill="none" stroke="black" d="M2492.88,-85.04C2492.88,-100.37 2492.88,-119.8 2492.88,-119.8 2492.88,-119.8 2028.33,-119.8 2028.33,-119.8"/>
<polygon fill="black" stroke="black" points="2028.33,-116.3 2018.33,-119.8 2028.33,-123.3 2028.33,-116.3"/>
</g>
<!-- IssueLabelComponent -->
<g id="node10" class="node">
<title>IssueLabelComponent</title>
<polygon fill="#ffffb3" stroke="black" points="2444.97,-84.8 2303.03,-84.8 2303.03,-48.8 2444.97,-48.8 2444.97,-84.8"/>
<text text-anchor="middle" x="2374" y="-62.6" font-family="Times,serif" font-size="14.00">IssueLabelComponent</text>
</g>
<!-- IssueLabelComponent&#45;&gt;GraphsModule -->
<g id="edge10" class="edge">
<title>IssueLabelComponent&#45;&gt;GraphsModule</title>
<path fill="none" stroke="black" d="M2334.38,-84.92C2334.38,-99.58 2334.38,-117.8 2334.38,-117.8 2334.38,-117.8 2028.17,-117.8 2028.17,-117.8"/>
<polygon fill="black" stroke="black" points="2028.17,-114.3 2018.17,-117.8 2028.17,-121.3 2028.17,-114.3"/>
</g>
<!-- IssueListComponent -->
<g id="node11" class="node">
<title>IssueListComponent</title>
<polygon fill="#ffffb3" stroke="black" points="2284.88,-84.8 2153.12,-84.8 2153.12,-48.8 2284.88,-48.8 2284.88,-84.8"/>
<text text-anchor="middle" x="2219" y="-62.6" font-family="Times,serif" font-size="14.00">IssueListComponent</text>
</g>
<!-- IssueListComponent&#45;&gt;GraphsModule -->
<g id="edge11" class="edge">
<title>IssueListComponent&#45;&gt;GraphsModule</title>
<path fill="none" stroke="black" d="M2177.88,-85.05C2177.88,-98.98 2177.88,-115.8 2177.88,-115.8 2177.88,-115.8 2028,-115.8 2028,-115.8"/>
<polygon fill="black" stroke="black" points="2028,-112.3 2018,-115.8 2028,-119.3 2028,-112.3"/>
</g>
<!-- IssueLocationComponent -->
<g id="node12" class="node">
<title>IssueLocationComponent</title>
<polygon fill="#ffffb3" stroke="black" points="2134.86,-84.8 1975.14,-84.8 1975.14,-48.8 2134.86,-48.8 2134.86,-84.8"/>
<text text-anchor="middle" x="2055" y="-62.6" font-family="Times,serif" font-size="14.00">IssueLocationComponent</text>
</g>
<!-- IssueLocationComponent&#45;&gt;GraphsModule -->
<g id="edge12" class="edge">
<title>IssueLocationComponent&#45;&gt;GraphsModule</title>
<path fill="none" stroke="black" d="M1996.53,-84.91C1996.53,-84.91 1996.53,-103.79 1996.53,-103.79"/>
<polygon fill="black" stroke="black" points="1993.03,-103.79 1996.53,-113.79 2000.03,-103.79 1993.03,-103.79"/>
</g>
<!-- IssueSidebarComponent -->
<g id="node13" class="node">
<title>IssueSidebarComponent</title>
<polygon fill="#ffffb3" stroke="black" points="1957.36,-84.8 1804.64,-84.8 1804.64,-48.8 1957.36,-48.8 1957.36,-84.8"/>
<text text-anchor="middle" x="1881" y="-62.6" font-family="Times,serif" font-size="14.00">IssueSidebarComponent</text>
</g>
<!-- IssueSidebarComponent&#45;&gt;GraphsModule -->
<g id="edge13" class="edge">
<title>IssueSidebarComponent&#45;&gt;GraphsModule</title>
<path fill="none" stroke="black" d="M1937.72,-84.91C1937.72,-84.91 1937.72,-103.79 1937.72,-103.79"/>
<polygon fill="black" stroke="black" points="1934.22,-103.79 1937.72,-113.79 1941.22,-103.79 1934.22,-103.79"/>
</g>
<!-- ItemDirective -->
<g id="node14" class="node">
<title>ItemDirective</title>
<polygon fill="#ffffb3" stroke="black" points="1786.74,-84.8 1693.26,-84.8 1693.26,-48.8 1786.74,-48.8 1786.74,-84.8"/>
<text text-anchor="middle" x="1740" y="-62.6" font-family="Times,serif" font-size="14.00">ItemDirective</text>
</g>
<!-- ItemDirective&#45;&gt;GraphsModule -->
<g id="edge14" class="edge">
<title>ItemDirective&#45;&gt;GraphsModule</title>
<path fill="none" stroke="black" d="M1749.34,-85.05C1749.34,-98.98 1749.34,-115.8 1749.34,-115.8 1749.34,-115.8 1907.84,-115.8 1907.84,-115.8"/>
<polygon fill="black" stroke="black" points="1907.84,-119.3 1917.84,-115.8 1907.84,-112.3 1907.84,-119.3"/>
</g>
<!-- LabelSearchComponent -->
<g id="node15" class="node">
<title>LabelSearchComponent</title>
<polygon fill="#ffffb3" stroke="black" points="1674.79,-84.8 1523.21,-84.8 1523.21,-48.8 1674.79,-48.8 1674.79,-84.8"/>
<text text-anchor="middle" x="1599" y="-62.6" font-family="Times,serif" font-size="14.00">LabelSearchComponent</text>
</g>
<!-- LabelSearchComponent&#45;&gt;GraphsModule -->
<g id="edge15" class="edge">
<title>LabelSearchComponent&#45;&gt;GraphsModule</title>
<path fill="none" stroke="black" d="M1635.51,-84.92C1635.51,-99.58 1635.51,-117.8 1635.51,-117.8 1635.51,-117.8 1907.86,-117.8 1907.86,-117.8"/>
<polygon fill="black" stroke="black" points="1907.86,-121.3 1917.86,-117.8 1907.86,-114.3 1907.86,-121.3"/>
</g>
<!-- ProjectHeaderComponent -->
<g id="node16" class="node">
<title>ProjectHeaderComponent</title>
<polygon fill="#ffffb3" stroke="black" points="1505.9,-84.8 1344.1,-84.8 1344.1,-48.8 1505.9,-48.8 1505.9,-84.8"/>
<text text-anchor="middle" x="1425" y="-62.6" font-family="Times,serif" font-size="14.00">ProjectHeaderComponent</text>
</g>
<!-- ProjectHeaderComponent&#45;&gt;GraphsModule -->
<g id="edge16" class="edge">
<title>ProjectHeaderComponent&#45;&gt;GraphsModule</title>
<path fill="none" stroke="black" d="M1459.62,-85.04C1459.62,-100.37 1459.62,-119.8 1459.62,-119.8 1459.62,-119.8 1907.86,-119.8 1907.86,-119.8"/>
<polygon fill="black" stroke="black" points="1907.86,-123.3 1917.86,-119.8 1907.86,-116.3 1907.86,-123.3"/>
</g>
<!-- ProjectIssueListComponent -->
<g id="node17" class="node">
<title>ProjectIssueListComponent</title>
<polygon fill="#ffffb3" stroke="black" points="1326.53,-84.8 1155.47,-84.8 1155.47,-48.8 1326.53,-48.8 1326.53,-84.8"/>
<text text-anchor="middle" x="1241" y="-62.6" font-family="Times,serif" font-size="14.00">ProjectIssueListComponent</text>
</g>
<!-- ProjectIssueListComponent&#45;&gt;GraphsModule -->
<g id="edge17" class="edge">
<title>ProjectIssueListComponent&#45;&gt;GraphsModule</title>
<path fill="none" stroke="black" d="M1292.66,-84.81C1292.66,-100.85 1292.66,-121.8 1292.66,-121.8 1292.66,-121.8 1907.79,-121.8 1907.79,-121.8"/>
<polygon fill="black" stroke="black" points="1907.79,-125.3 1917.79,-121.8 1907.79,-118.3 1907.79,-125.3"/>
</g>
<!-- ProjectMembersComponent -->
<g id="node18" class="node">
<title>ProjectMembersComponent</title>
<polygon fill="#ffffb3" stroke="black" points="1136.86,-84.8 963.14,-84.8 963.14,-48.8 1136.86,-48.8 1136.86,-84.8"/>
<text text-anchor="middle" x="1050" y="-62.6" font-family="Times,serif" font-size="14.00">ProjectMembersComponent</text>
</g>
<!-- ProjectMembersComponent&#45;&gt;GraphsModule -->
<g id="edge18" class="edge">
<title>ProjectMembersComponent&#45;&gt;GraphsModule</title>
<path fill="none" stroke="black" d="M1116.29,-84.83C1116.29,-101.2 1116.29,-122.8 1116.29,-122.8 1116.29,-122.8 1907.9,-122.8 1907.9,-122.8"/>
<polygon fill="black" stroke="black" points="1907.9,-126.3 1917.9,-122.8 1907.9,-119.3 1907.9,-126.3"/>
</g>
<!-- QueryBodyDirective -->
<g id="node19" class="node">
<title>QueryBodyDirective</title>
<polygon fill="#ffffb3" stroke="black" points="944.9,-84.8 811.1,-84.8 811.1,-48.8 944.9,-48.8 944.9,-84.8"/>
<text text-anchor="middle" x="878" y="-62.6" font-family="Times,serif" font-size="14.00">QueryBodyDirective</text>
</g>
<!-- QueryBodyDirective&#45;&gt;GraphsModule -->
<g id="edge19" class="edge">
<title>QueryBodyDirective&#45;&gt;GraphsModule</title>
<path fill="none" stroke="black" d="M897,-84.83C897,-101.86 897,-124.8 897,-124.8 897,-124.8 1907.78,-124.8 1907.78,-124.8"/>
<polygon fill="black" stroke="black" points="1907.78,-128.3 1917.78,-124.8 1907.78,-121.3 1907.78,-128.3"/>
</g>
<!-- QueryButtonDirective -->
<g id="node20" class="node">
<title>QueryButtonDirective</title>
<polygon fill="#ffffb3" stroke="black" points="793.68,-84.8 652.32,-84.8 652.32,-48.8 793.68,-48.8 793.68,-84.8"/>
<text text-anchor="middle" x="723" y="-62.6" font-family="Times,serif" font-size="14.00">QueryButtonDirective</text>
</g>
<!-- QueryButtonDirective&#45;&gt;GraphsModule -->
<g id="edge20" class="edge">
<title>QueryButtonDirective&#45;&gt;GraphsModule</title>
<path fill="none" stroke="black" d="M789.02,-84.8C789.02,-102.48 789.02,-126.8 789.02,-126.8 789.02,-126.8 1907.72,-126.8 1907.72,-126.8"/>
<polygon fill="black" stroke="black" points="1907.72,-130.3 1917.72,-126.8 1907.72,-123.3 1907.72,-130.3"/>
</g>
<!-- QueryComponent -->
<g id="node21" class="node">
<title>QueryComponent</title>
<polygon fill="#ffffb3" stroke="black" points="634.31,-84.8 517.69,-84.8 517.69,-48.8 634.31,-48.8 634.31,-84.8"/>
<text text-anchor="middle" x="576" y="-62.6" font-family="Times,serif" font-size="14.00">QueryComponent</text>
</g>
<!-- QueryComponent&#45;&gt;GraphsModule -->
<g id="edge21" class="edge">
<title>QueryComponent&#45;&gt;GraphsModule</title>
<path fill="none" stroke="black" d="M576,-85.07C576,-103.36 576,-128.8 576,-128.8 576,-128.8 1907.64,-128.8 1907.64,-128.8"/>
<polygon fill="black" stroke="black" points="1907.64,-132.3 1917.64,-128.8 1907.64,-125.3 1907.64,-132.3"/>
</g>
<!-- SetEditorComponent -->
<g id="node22" class="node">
<title>SetEditorComponent</title>
<polygon fill="#ffffb3" stroke="black" points="500.21,-84.8 365.79,-84.8 365.79,-48.8 500.21,-48.8 500.21,-84.8"/>
<text text-anchor="middle" x="433" y="-62.6" font-family="Times,serif" font-size="14.00">SetEditorComponent</text>
</g>
<!-- SetEditorComponent&#45;&gt;GraphsModule -->
<g id="edge22" class="edge">
<title>SetEditorComponent&#45;&gt;GraphsModule</title>
<path fill="none" stroke="black" d="M433,-84.97C433,-103.89 433,-130.8 433,-130.8 433,-130.8 1907.8,-130.8 1907.8,-130.8"/>
<polygon fill="black" stroke="black" points="1907.8,-134.3 1917.8,-130.8 1907.8,-127.3 1907.8,-134.3"/>
</g>
<!-- SetEditorDialogComponent -->
<g id="node23" class="node">
<title>SetEditorDialogComponent</title>
<polygon fill="#ffffb3" stroke="black" points="348.32,-84.8 175.68,-84.8 175.68,-48.8 348.32,-48.8 348.32,-84.8"/>
<text text-anchor="middle" x="262" y="-62.6" font-family="Times,serif" font-size="14.00">SetEditorDialogComponent</text>
</g>
<!-- SetEditorDialogComponent&#45;&gt;GraphsModule -->
<g id="edge23" class="edge">
<title>SetEditorDialogComponent&#45;&gt;GraphsModule</title>
<path fill="none" stroke="black" d="M262,-84.91C262,-104.14 262,-131.8 262,-131.8 262,-131.8 1907.87,-131.8 1907.87,-131.8"/>
<polygon fill="black" stroke="black" points="1907.87,-135.3 1917.87,-131.8 1907.87,-128.3 1907.87,-135.3"/>
</g>
<!-- UserItemComponent -->
<g id="node24" class="node">
<title>UserItemComponent</title>
<polygon fill="#ffffb3" stroke="black" points="157.92,-84.8 24.08,-84.8 24.08,-48.8 157.92,-48.8 157.92,-84.8"/>
<text text-anchor="middle" x="91" y="-62.6" font-family="Times,serif" font-size="14.00">UserItemComponent</text>
</g>
<!-- UserItemComponent&#45;&gt;GraphsModule -->
<g id="edge24" class="edge">
<title>UserItemComponent&#45;&gt;GraphsModule</title>
<path fill="none" stroke="black" d="M91,-85.11C91,-104.95 91,-133.8 91,-133.8 91,-133.8 1907.79,-133.8 1907.79,-133.8"/>
<polygon fill="black" stroke="black" points="1907.79,-137.3 1917.79,-133.8 1907.79,-130.3 1907.79,-137.3"/>
</g>
<!-- CursorPaginatorComponent  -->
<g id="node26" class="node">
<title>CursorPaginatorComponent </title>
<polygon fill="#fb8072" stroke="black" points="3439.09,-214.8 3262.91,-214.8 3262.91,-178.8 3439.09,-178.8 3439.09,-214.8"/>
<text text-anchor="middle" x="3351" y="-192.6" font-family="Times,serif" font-size="14.00">CursorPaginatorComponent </text>
</g>
<!-- GraphsModule&#45;&gt;CursorPaginatorComponent  -->
<g id="edge25" class="edge">
<title>GraphsModule&#45;&gt;CursorPaginatorComponent </title>
<path fill="none" stroke="black" stroke-dasharray="5,2" d="M2017.98,-135.8C2257.16,-135.8 3273.46,-135.8 3273.46,-135.8 3273.46,-135.8 3273.46,-168.5 3273.46,-168.5"/>
<polygon fill="black" stroke="black" points="3269.96,-168.5 3273.46,-178.5 3276.96,-168.5 3269.96,-168.5"/>
</g>
<!-- IssueCategoryComponent  -->
<g id="node27" class="node">
<title>IssueCategoryComponent </title>
<polygon fill="#fb8072" stroke="black" points="3244.41,-214.8 3079.59,-214.8 3079.59,-178.8 3244.41,-178.8 3244.41,-214.8"/>
<text text-anchor="middle" x="3162" y="-192.6" font-family="Times,serif" font-size="14.00">IssueCategoryComponent </text>
</g>
<!-- GraphsModule&#45;&gt;IssueCategoryComponent  -->
<g id="edge26" class="edge">
<title>GraphsModule&#45;&gt;IssueCategoryComponent </title>
<path fill="none" stroke="black" stroke-dasharray="5,2" d="M2018.21,-137.8C2237.78,-137.8 3102.54,-137.8 3102.54,-137.8 3102.54,-137.8 3102.54,-168.78 3102.54,-168.78"/>
<polygon fill="black" stroke="black" points="3099.04,-168.78 3102.54,-178.78 3106.04,-168.78 3099.04,-168.78"/>
</g>
<!-- IssueGraphComponent  -->
<g id="node28" class="node">
<title>IssueGraphComponent </title>
<polygon fill="#fb8072" stroke="black" points="3061.08,-214.8 2912.92,-214.8 2912.92,-178.8 3061.08,-178.8 3061.08,-214.8"/>
<text text-anchor="middle" x="2987" y="-192.6" font-family="Times,serif" font-size="14.00">IssueGraphComponent </text>
</g>
<!-- GraphsModule&#45;&gt;IssueGraphComponent  -->
<g id="edge27" class="edge">
<title>GraphsModule&#45;&gt;IssueGraphComponent </title>
<path fill="none" stroke="black" stroke-dasharray="5,2" d="M2018.09,-139.8C2216.66,-139.8 2937.68,-139.8 2937.68,-139.8 2937.68,-139.8 2937.68,-168.76 2937.68,-168.76"/>
<polygon fill="black" stroke="black" points="2934.18,-168.76 2937.68,-178.76 2941.18,-168.76 2934.18,-168.76"/>
</g>
<!-- IssueGraphControlsComponent  -->
<g id="node29" class="node">
<title>IssueGraphControlsComponent </title>
<polygon fill="#fb8072" stroke="black" points="2894.3,-214.8 2697.7,-214.8 2697.7,-178.8 2894.3,-178.8 2894.3,-214.8"/>
<text text-anchor="middle" x="2796" y="-192.6" font-family="Times,serif" font-size="14.00">IssueGraphControlsComponent </text>
</g>
<!-- GraphsModule&#45;&gt;IssueGraphControlsComponent  -->
<g id="edge28" class="edge">
<title>GraphsModule&#45;&gt;IssueGraphControlsComponent </title>
<path fill="none" stroke="black" stroke-dasharray="5,2" d="M2018.22,-140.8C2187.2,-140.8 2724.54,-140.8 2724.54,-140.8 2724.54,-140.8 2724.54,-168.77 2724.54,-168.77"/>
<polygon fill="black" stroke="black" points="2721.04,-168.77 2724.54,-178.77 2728.04,-168.77 2721.04,-168.77"/>
</g>
<!-- IssueIconComponent  -->
<g id="node30" class="node">
<title>IssueIconComponent </title>
<polygon fill="#fb8072" stroke="black" points="2679.47,-214.8 2540.53,-214.8 2540.53,-178.8 2679.47,-178.8 2679.47,-214.8"/>
<text text-anchor="middle" x="2610" y="-192.6" font-family="Times,serif" font-size="14.00">IssueIconComponent </text>
</g>
<!-- GraphsModule&#45;&gt;IssueIconComponent  -->
<g id="edge29" class="edge">
<title>GraphsModule&#45;&gt;IssueIconComponent </title>
<path fill="none" stroke="black" stroke-dasharray="5,2" d="M2018.02,-142.8C2162.43,-142.8 2569.82,-142.8 2569.82,-142.8 2569.82,-142.8 2569.82,-168.52 2569.82,-168.52"/>
<polygon fill="black" stroke="black" points="2566.32,-168.52 2569.82,-178.52 2573.32,-168.52 2566.32,-168.52"/>
</g>
<!-- IssueItemComponent  -->
<g id="node31" class="node">
<title>IssueItemComponent </title>
<polygon fill="#fb8072" stroke="black" points="2522.75,-214.8 2383.25,-214.8 2383.25,-178.8 2522.75,-178.8 2522.75,-214.8"/>
<text text-anchor="middle" x="2453" y="-192.6" font-family="Times,serif" font-size="14.00">IssueItemComponent </text>
</g>
<!-- GraphsModule&#45;&gt;IssueItemComponent  -->
<g id="edge30" class="edge">
<title>GraphsModule&#45;&gt;IssueItemComponent </title>
<path fill="none" stroke="black" stroke-dasharray="5,2" d="M2018.32,-144.8C2135,-144.8 2414.18,-144.8 2414.18,-144.8 2414.18,-144.8 2414.18,-168.61 2414.18,-168.61"/>
<polygon fill="black" stroke="black" points="2410.68,-168.61 2414.18,-178.61 2417.68,-168.61 2410.68,-168.61"/>
</g>
<!-- IssueLabelComponent  -->
<g id="node32" class="node">
<title>IssueLabelComponent </title>
<polygon fill="#fb8072" stroke="black" points="2365.97,-214.8 2220.03,-214.8 2220.03,-178.8 2365.97,-178.8 2365.97,-214.8"/>
<text text-anchor="middle" x="2293" y="-192.6" font-family="Times,serif" font-size="14.00">IssueLabelComponent </text>
</g>
<!-- GraphsModule&#45;&gt;IssueLabelComponent  -->
<g id="edge31" class="edge">
<title>GraphsModule&#45;&gt;IssueLabelComponent </title>
<path fill="none" stroke="black" stroke-dasharray="5,2" d="M2018.23,-146.8C2099.93,-146.8 2252.6,-146.8 2252.6,-146.8 2252.6,-146.8 2252.6,-168.75 2252.6,-168.75"/>
<polygon fill="black" stroke="black" points="2249.1,-168.75 2252.6,-178.75 2256.1,-168.75 2249.1,-168.75"/>
</g>
<!-- IssueListComponent  -->
<g id="node33" class="node">
<title>IssueListComponent </title>
<polygon fill="#fb8072" stroke="black" points="2202.88,-214.8 2067.12,-214.8 2067.12,-178.8 2202.88,-178.8 2202.88,-214.8"/>
<text text-anchor="middle" x="2135" y="-192.6" font-family="Times,serif" font-size="14.00">IssueListComponent </text>
</g>
<!-- GraphsModule&#45;&gt;IssueListComponent  -->
<g id="edge32" class="edge">
<title>GraphsModule&#45;&gt;IssueListComponent </title>
<path fill="none" stroke="black" stroke-dasharray="5,2" d="M2018.33,-148.8C2056.02,-148.8 2101.12,-148.8 2101.12,-148.8 2101.12,-148.8 2101.12,-168.65 2101.12,-168.65"/>
<polygon fill="black" stroke="black" points="2097.62,-168.65 2101.12,-178.65 2104.62,-168.65 2097.62,-168.65"/>
</g>
<!-- IssueLocationComponent  -->
<g id="node34" class="node">
<title>IssueLocationComponent </title>
<polygon fill="#fb8072" stroke="black" points="2049.86,-214.8 1886.14,-214.8 1886.14,-178.8 2049.86,-178.8 2049.86,-214.8"/>
<text text-anchor="middle" x="1968" y="-192.6" font-family="Times,serif" font-size="14.00">IssueLocationComponent </text>
</g>
<!-- GraphsModule&#45;&gt;IssueLocationComponent  -->
<g id="edge33" class="edge">
<title>GraphsModule&#45;&gt;IssueLocationComponent </title>
<path fill="none" stroke="black" stroke-dasharray="5,2" d="M1968,-149.91C1968,-149.91 1968,-168.79 1968,-168.79"/>
<polygon fill="black" stroke="black" points="1964.5,-168.79 1968,-178.79 1971.5,-168.79 1964.5,-168.79"/>
</g>
<!-- IssueSidebarComponent  -->
<g id="node35" class="node">
<title>IssueSidebarComponent </title>
<polygon fill="#fb8072" stroke="black" points="1868.36,-214.8 1711.64,-214.8 1711.64,-178.8 1868.36,-178.8 1868.36,-214.8"/>
<text text-anchor="middle" x="1790" y="-192.6" font-family="Times,serif" font-size="14.00">IssueSidebarComponent </text>
</g>
<!-- GraphsModule&#45;&gt;IssueSidebarComponent  -->
<g id="edge34" class="edge">
<title>GraphsModule&#45;&gt;IssueSidebarComponent </title>
<path fill="none" stroke="black" stroke-dasharray="5,2" d="M1917.86,-148.8C1880.67,-148.8 1836.38,-148.8 1836.38,-148.8 1836.38,-148.8 1836.38,-168.65 1836.38,-168.65"/>
<polygon fill="black" stroke="black" points="1832.88,-168.65 1836.38,-178.65 1839.88,-168.65 1832.88,-168.65"/>
</g>
<!-- ItemDirective  -->
<g id="node36" class="node">
<title>ItemDirective </title>
<polygon fill="#fb8072" stroke="black" points="1693.74,-214.8 1596.26,-214.8 1596.26,-178.8 1693.74,-178.8 1693.74,-214.8"/>
<text text-anchor="middle" x="1645" y="-192.6" font-family="Times,serif" font-size="14.00">ItemDirective </text>
</g>
<!-- GraphsModule&#45;&gt;ItemDirective  -->
<g id="edge35" class="edge">
<title>GraphsModule&#45;&gt;ItemDirective </title>
<path fill="none" stroke="black" stroke-dasharray="5,2" d="M1917.86,-146.8C1836.3,-146.8 1683.89,-146.8 1683.89,-146.8 1683.89,-146.8 1683.89,-168.75 1683.89,-168.75"/>
<polygon fill="black" stroke="black" points="1680.39,-168.75 1683.89,-178.75 1687.39,-168.75 1680.39,-168.75"/>
</g>
<!-- ProjectHeaderComponent  -->
<g id="node37" class="node">
<title>ProjectHeaderComponent </title>
<polygon fill="#fb8072" stroke="black" points="1578.4,-214.8 1413.6,-214.8 1413.6,-178.8 1578.4,-178.8 1578.4,-214.8"/>
<text text-anchor="middle" x="1496" y="-192.6" font-family="Times,serif" font-size="14.00">ProjectHeaderComponent </text>
</g>
<!-- GraphsModule&#45;&gt;ProjectHeaderComponent  -->
<g id="edge36" class="edge">
<title>GraphsModule&#45;&gt;ProjectHeaderComponent </title>
<path fill="none" stroke="black" stroke-dasharray="5,2" d="M1917.69,-144.8C1806.75,-144.8 1550.9,-144.8 1550.9,-144.8 1550.9,-144.8 1550.9,-168.61 1550.9,-168.61"/>
<polygon fill="black" stroke="black" points="1547.4,-168.61 1550.9,-178.61 1554.4,-168.61 1547.4,-168.61"/>
</g>
<!-- QueryBodyDirective  -->
<g id="node38" class="node">
<title>QueryBodyDirective </title>
<polygon fill="#fb8072" stroke="black" points="1395.4,-214.8 1258.6,-214.8 1258.6,-178.8 1395.4,-178.8 1395.4,-214.8"/>
<text text-anchor="middle" x="1327" y="-192.6" font-family="Times,serif" font-size="14.00">QueryBodyDirective </text>
</g>
<!-- GraphsModule&#45;&gt;QueryBodyDirective  -->
<g id="edge37" class="edge">
<title>GraphsModule&#45;&gt;QueryBodyDirective </title>
<path fill="none" stroke="black" stroke-dasharray="5,2" d="M1917.78,-142.8C1773.8,-142.8 1369.88,-142.8 1369.88,-142.8 1369.88,-142.8 1369.88,-168.52 1369.88,-168.52"/>
<polygon fill="black" stroke="black" points="1366.38,-168.52 1369.88,-178.52 1373.38,-168.52 1366.38,-168.52"/>
</g>
<!-- QueryButtonDirective  -->
<g id="node39" class="node">
<title>QueryButtonDirective </title>
<polygon fill="#fb8072" stroke="black" points="1240.18,-214.8 1095.82,-214.8 1095.82,-178.8 1240.18,-178.8 1240.18,-214.8"/>
<text text-anchor="middle" x="1168" y="-192.6" font-family="Times,serif" font-size="14.00">QueryButtonDirective </text>
</g>
<!-- GraphsModule&#45;&gt;QueryButtonDirective  -->
<g id="edge38" class="edge">
<title>GraphsModule&#45;&gt;QueryButtonDirective </title>
<path fill="none" stroke="black" stroke-dasharray="5,2" d="M1917.76,-140.8C1746.75,-140.8 1197.79,-140.8 1197.79,-140.8 1197.79,-140.8 1197.79,-168.77 1197.79,-168.77"/>
<polygon fill="black" stroke="black" points="1194.29,-168.77 1197.79,-178.77 1201.29,-168.77 1194.29,-168.77"/>
</g>
<!-- QueryComponent  -->
<g id="node40" class="node">
<title>QueryComponent </title>
<polygon fill="#fb8072" stroke="black" points="1077.81,-214.8 958.19,-214.8 958.19,-178.8 1077.81,-178.8 1077.81,-214.8"/>
<text text-anchor="middle" x="1018" y="-192.6" font-family="Times,serif" font-size="14.00">QueryComponent </text>
</g>
<!-- GraphsModule&#45;&gt;QueryComponent  -->
<g id="edge39" class="edge">
<title>GraphsModule&#45;&gt;QueryComponent </title>
<path fill="none" stroke="black" stroke-dasharray="5,2" d="M1917.73,-139.8C1721.84,-139.8 1020.49,-139.8 1020.49,-139.8 1020.49,-139.8 1020.49,-168.76 1020.49,-168.76"/>
<polygon fill="black" stroke="black" points="1016.99,-168.76 1020.49,-178.76 1023.99,-168.76 1016.99,-168.76"/>
</g>
<!-- SetEditorComponent  -->
<g id="node41" class="node">
<title>SetEditorComponent </title>
<polygon fill="#fb8072" stroke="black" points="939.71,-214.8 802.29,-214.8 802.29,-178.8 939.71,-178.8 939.71,-214.8"/>
<text text-anchor="middle" x="871" y="-192.6" font-family="Times,serif" font-size="14.00">SetEditorComponent </text>
</g>
<!-- GraphsModule&#45;&gt;SetEditorComponent  -->
<g id="edge40" class="edge">
<title>GraphsModule&#45;&gt;SetEditorComponent </title>
<path fill="none" stroke="black" stroke-dasharray="5,2" d="M1917.98,-137.8C1701.24,-137.8 854.15,-137.8 854.15,-137.8 854.15,-137.8 854.15,-168.78 854.15,-168.78"/>
<polygon fill="black" stroke="black" points="850.65,-168.78 854.15,-178.78 857.65,-168.78 850.65,-168.78"/>
</g>
<!-- UserItemComponent  -->
<g id="node42" class="node">
<title>UserItemComponent </title>
<polygon fill="#fb8072" stroke="black" points="784.42,-214.8 647.58,-214.8 647.58,-178.8 784.42,-178.8 784.42,-214.8"/>
<text text-anchor="middle" x="716" y="-192.6" font-family="Times,serif" font-size="14.00">UserItemComponent </text>
</g>
<!-- GraphsModule&#45;&gt;UserItemComponent  -->
<g id="edge41" class="edge">
<title>GraphsModule&#45;&gt;UserItemComponent </title>
<path fill="none" stroke="black" stroke-dasharray="5,2" d="M1917.86,-135.8C1684.77,-135.8 718.43,-135.8 718.43,-135.8 718.43,-135.8 718.43,-168.5 718.43,-168.5"/>
<polygon fill="black" stroke="black" points="714.93,-168.5 718.43,-178.5 721.93,-168.5 714.93,-168.5"/>
</g>
</g>
</svg>
