<?xml version="1.0" encoding="UTF-8"?>
<svg width="32px" height="32px" viewBox="0 0 32 32" version="1.1" xmlns="http://www.w3.org/2000/svg" xmlns:xlink="http://www.w3.org/1999/xlink">
    <title>issues/bug-closed-out</title>
    <g id="issues/bug-closed-out" stroke="none" stroke-width="1" fill="none" fill-rule="evenodd">
        <path d="M16,5 C18.7614237,5 21,7.23857625 21,10 C21,10.3423792 20.9655872,10.6767209 20.9000316,10.9997548 C21.0507855,11.1120501 21.1957294,11.2342462 21.3333022,11.3641649 L24.8356362,8.25259068 L26.1643638,9.74740932 L22.4907621,13.0133863 C22.7546865,13.622313 22.9009805,14.2940721 22.9009805,15 C22.9009805,15.3292599 22.868457,15.6577148 22.8038839,15.9805807 L21.8641146,20.674 L25.7682213,25.3598156 L24.2317787,26.6401844 L21.0381198,22.8087468 C20.1297475,24.1456263 18.5994991,25 16.9009805,25 L15.0990195,25 C13.4000729,25 11.8694812,24.1451956 10.9611935,22.807736 L7.76822128,26.6401844 L6.23177872,25.3598156 L10.1351146,20.674 L9.53811456,17.689 L5.17888544,18.4838699 L4.82111456,16.5161301 L9.15247082,15.7299431 C9.0111947,14.7780252 9.15007412,13.8429995 9.51021231,13.0132111 L5.83563616,9.74740932 L7.16436384,8.25259068 L10.6647144,11.3651451 C10.802617,11.2346034 10.9483006,11.111583 11.1012234,10.9968969 C11.0342829,10.6754567 11,10.341732 11,10 C11,7.23857625 13.2385763,5 16,5 Z M19.7552783,13.5 L14.6564299,18.5988484 L12.2447217,16.193858 L11.2975048,17.1410749 L14.6564299,20.5 L20.7024952,14.4539347 L19.7552783,13.5 Z M16,7 C14.3431458,7 13,8.34314575 13,10 L13.0040607,10.1213387 C13.0419936,10.1128428 13.0801209,10.1047602 13.1184388,10.0970966 C13.4413048,10.0325234 13.7697596,10 14.0990195,10 L17.9009805,10 C18.2771497,10 18.6436165,10.0415405 18.996044,10.1202845 L19,10 L19,10 C19,8.34314575 17.6568542,7 16,7 Z" id="bug-check" fill="#FF0036" fill-rule="nonzero"></path>
        <polygon id="arrow-out" fill="#FF8900" points="24 11 24 21 31 16"></polygon>
    </g>
</svg>