<?xml version="1.0" encoding="UTF-8"?>
<svg width="32px" height="32px" viewBox="0 0 32 32" version="1.1" xmlns="http://www.w3.org/2000/svg" xmlns:xlink="http://www.w3.org/1999/xlink">
    <title>issues/feature-closed-inout</title>
    <g id="issues/feature-closed-inout" stroke="none" stroke-width="1" fill="none" fill-rule="evenodd">
        <path d="M16,4 C18.8272411,4 21.3499999,5.30364391 22.9999563,7.34261164 L22.9999563,18.6573884 C21.3499999,20.6963561 18.8272411,22 16,22 C12.379379,22 9.25810508,19.8620408 7.82976415,16.7797082 L11.7204651,14 L7.26607989,10.8189712 C8.24098341,6.90226218 11.7815619,4 16,4 Z M20.6660269,9 L14.8387716,14.8272553 L12.0825336,12.0786948 L11,13.1612284 L14.8387716,17 L21.7485605,10.0902111 L20.6660269,9 Z" id="bulb-check" fill="#FF0036"></path>
        <rect id="screw1" fill="#FF0036" x="13" y="23" width="6" height="2"></rect>
        <rect id="screw2" fill="#FF0036" x="13" y="26" width="6" height="2"></rect>
        <polygon id="arrow-in" fill="#00C6EB" points="3 9 3 19 10 14"></polygon>
        <polygon id="arrow-out" fill="#FF8900" points="24 9 24 19 31 14"></polygon>
    </g>
</svg>