<?xml version="1.0" encoding="UTF-8"?>
<svg width="32px" height="32px" viewBox="0 0 32 32" version="1.1" xmlns="http://www.w3.org/2000/svg" xmlns:xlink="http://www.w3.org/1999/xlink">
    <title>assigned/bug-in</title>
    <g id="assigned/bug-in" stroke="none" stroke-width="1" fill="none" fill-rule="evenodd">
        <g id="Group">
            <path d="M16,7 C14.3431458,7 13,8.34314575 13,10 L13.0040607,10.1213387 C13.0419936,10.1128428 13.0801209,10.1047602 13.1184388,10.0970966 C13.4413048,10.0325234 13.7697596,10 14.0990195,10 L17.9009805,10 C18.2771497,10 18.6436165,10.0415405 18.996044,10.1202845 L19,10 C19,8.34314575 17.6568542,7 16,7 Z M12.4855869,12.469847 L12.4476362,12.494 L12.4866362,12.469 L12.4146362,12.516 L12.4032148,12.5243435 C12.3682233,12.5483363 12.3338061,12.5730333 12.2999795,12.59841 L12.2995722,12.5987155 L12.2655303,12.6246461 C12.2539751,12.6335793 12.2424912,12.6425929 12.2310793,12.6516857 L12.1716472,12.7002998 L12.1048932,12.7580461 C12.0910472,12.7703849 12.0773222,12.7828464 12.0637198,12.7954284 L12.0366109,12.8208167 L11.986156,12.8697932 C11.9702713,12.8855777 11.95457,12.9015329 11.9390547,12.9176551 L11.9376362,12.918 L11.9138977,12.9441157 L11.9138977,12.9441157 L11.8891409,12.9707948 L11.8506362,13.013 L11.8326362,13.034 L11.8246362,13.043 L11.8016362,13.071 L11.8190398,13.0500112 L11.7635872,13.1168633 L11.7635872,13.1168633 L11.7266362,13.163 L11.7496362,13.135 L11.6380284,13.2843231 C11.598424,13.341148 11.5607805,13.3993285 11.5251722,13.4587534 L11.5002579,13.5011115 L11.5002579,13.5011115 L11.4761601,13.543645 L11.4396989,13.6112492 L11.4396989,13.6112492 L11.4076362,13.674 L11.4049546,13.6797954 L11.3546362,13.786 L11.3376362,13.827 L11.3366362,13.828 L11.3240598,13.8591612 L11.3240598,13.8591612 C11.1269914,14.337257 11.0513706,14.8709551 11.1277013,15.4145 L11.1572775,15.5883484 L11.1586362,15.599 L9.16596192,14.176312 C9.23338865,13.7729492 9.34987137,13.38265 9.51021231,13.0132111 L5.83563616,9.74740932 L7.16436384,8.25259068 L10.6647144,11.3651451 C10.802617,11.2346034 10.9483006,11.111583 11.1012234,10.9968969 C11.0342829,10.6754567 11,10.341732 11,10 C11,7.23857625 13.2385763,5 16,5 C18.7614237,5 21,7.23857625 21,10 C21,10.3423792 20.9655872,10.6767209 20.9000316,10.9997548 C21.0507855,11.1120501 21.1957294,11.2342462 21.3333022,11.3641649 L24.8356362,8.25259068 L26.1643638,9.74740932 L22.4907621,13.0133863 C22.7546865,13.622313 22.9009805,14.2940721 22.9009805,15 C22.9009805,15.2442571 22.8830821,15.4880712 22.8474788,15.7294892 L27.1788854,16.5161301 L26.8211146,18.4838699 L22.4611146,17.69 L21.8641146,20.674 L25.7682213,25.3598156 L24.2317787,26.6401844 L21.0381198,22.8087468 C20.1297475,24.1456263 18.5994991,25 16.9009805,25 L15.0990195,25 C13.4000729,25 11.8694812,24.1451956 10.9611935,22.807736 L7.76822128,26.6401844 L6.23177872,25.3598156 L10.1351146,20.674 L9.53811456,17.69 L9.29163616,17.735 L11.2996362,16.3 L11.3431146,16.516 L11.5391146,17.5 L12.1572775,20.5883484 L12.185145,20.7138017 L12.185145,20.7138017 L12.218051,20.8370215 L12.2246362,20.859 L12.2376805,20.9019855 L12.2376805,20.9019855 L12.2400245,20.9094064 L12.2526362,20.948 L12.2406362,20.909 L12.2556362,20.955 L12.2637206,20.9809398 L12.2637206,20.9809398 C12.6570487,22.1201393 13.7036435,22.9231783 14.9213539,22.9947874 L15.0990195,23 L16.9009805,23 C18.2027702,23 19.3398208,22.1635544 19.7448646,20.9557114 C19.766267,20.8918757 19.7855755,20.8271903 19.8027681,20.7615416 L19.8427225,20.5883484 L20.1601146,18.999 L20.8427225,15.5883484 C20.8814664,15.3946289 20.9009805,15.197556 20.9009805,15 C20.9009805,14.6449598 20.8393054,14.3043246 20.7260846,13.9882237 L20.662995,13.8270049 L20.5930614,13.6745856 L20.5716362,13.633 L20.5699111,13.6286543 L20.5526362,13.597 L20.5276362,13.55 L20.5236362,13.543 L20.5126362,13.523 L20.512227,13.5219836 L20.5026362,13.505 L20.5006362,13.501 L20.4746362,13.458 L20.4580017,13.430229 L20.4580017,13.430229 L20.4166362,13.365 L20.3626362,13.286 L20.3616362,13.284 L20.3476362,13.265 L20.3236362,13.231 L20.3126362,13.216 L20.2730694,13.1631429 L20.2730694,13.1631429 L20.2366362,13.118 L20.2346362,13.116 L20.2356362,13.116 L20.2206362,13.098 L20.1992377,13.0716767 L20.1992377,13.0716767 L20.1676436,13.0346712 L20.1676436,13.0346712 L20.0605208,12.9182041 C19.9692376,12.8234261 19.8717762,12.7346536 19.7687854,12.652531 L19.7173565,12.6124267 L19.6173174,12.539156 C19.5954381,12.5238676 19.5733455,12.5088636 19.5510448,12.4941493 L19.4404284,12.4245698 L19.4366362,12.422 L19.4086362,12.406 L19.3639065,12.3803466 L19.3639065,12.3803466 L19.3775509,12.3879338 L19.2882007,12.3393026 L19.2882007,12.3393026 L19.1968581,12.2936057 L19.1968581,12.2936057 L19.1051516,12.2514524 L19.0221754,12.2165317 L19.0062427,12.2101611 L19.0062427,12.2101611 L18.9312985,12.1816065 L18.8392258,12.149637 C18.8318965,12.1472259 18.8245548,12.1448422 18.8172006,12.1424861 L18.6916362,12.105 L18.6816684,12.102591 L18.6816684,12.102591 L18.6896362,12.104 L18.6190984,12.0864946 L18.6190984,12.0864946 L18.4365553,12.0476686 L18.4326362,12.046 L18.4286362,12.046 L18.3966362,12.041 L18.3836362,12.039 L18.3856362,12.039 L18.3716362,12.037 L18.3429035,12.0323215 C18.3114847,12.0276829 18.2799074,12.0235314 18.2481793,12.0198749 L18.3306362,12.031 L18.2474167,12.0197871 C18.1911544,12.0133178 18.1344185,12.0084049 18.0772533,12.0050927 L17.9009805,12 L14.0990195,12 C13.992514,12 13.8861489,12.0056717 13.7803739,12.0169705 C13.780603,12.0185149 13.7808971,12.0188379 13.7811912,12.019161 L13.6653062,12.0315168 L13.5106711,12.058258 L13.3175306,12.1034603 C13.301675,12.1077214 13.2858805,12.1121045 13.2701477,12.1166082 C13.2216274,12.1304913 13.173342,12.145643 13.1256774,12.1619228 L13.2536362,12.121 L13.0861373,12.1757369 C13.0258041,12.1972895 12.9664916,12.2206596 12.9082507,12.2457709 L12.8954184,12.2513394 L12.7259148,12.3318148 L12.7259148,12.3318148 L12.5630487,12.4220745 L12.5596362,12.424 L12.4855869,12.469847 L12.4855869,12.469847 Z" id="bug" fill="#00BA39" fill-rule="nonzero"></path>
            <polygon id="arrow-in" fill="#00C6EB" points="3 11 3 21 10 16"></polygon>
        </g>
        <g id="Star" fill="#F0AF00">
            <polygon transform="translate(25.000000, 25.000000) rotate(16.000000) translate(-25.000000, -25.000000) " points="25 28.5 20.8855032 30.663119 21.6713022 26.0815595 18.3426044 22.836881 22.9427516 22.1684405 25 18 27.0572484 22.1684405 31.6573956 22.836881 28.3286978 26.0815595 29.1144968 30.663119"></polygon>
        </g>
    </g>
</svg>