<?xml version="1.0" encoding="UTF-8"?>
<svg width="32px" height="32px" viewBox="0 0 32 32" version="1.1" xmlns="http://www.w3.org/2000/svg" xmlns:xlink="http://www.w3.org/1999/xlink">
    <title>assigned/bug-inout</title>
    <g id="assigned/bug-inout" stroke="none" stroke-width="1" fill="none" fill-rule="evenodd">
        <g id="Group">
            <path d="M16,7 C14.3431458,7 13,8.34314575 13,10 L13.0035214,10.1214596 C13.0416322,10.1129194 13.0799393,10.1047965 13.1184388,10.0970966 C13.4413048,10.0325234 13.7697596,10 14.0990195,10 L17.9009805,10 C18.2772128,10 18.6437396,10.0415545 18.9962215,10.1203242 L19,10 C19,8.34314575 17.6568542,7 16,7 Z M13.1516362,12.153 L13.1976327,12.138355 L13.1976327,12.138355 L13.1838967,12.1426995 L13.1838967,12.1426995 L13.1696362,12.147 L13.1197637,12.1639496 L13.1197637,12.1639496 L13.1516362,12.153 L13.0927299,12.1733905 L13.0927299,12.1733905 L13.027342,12.1974366 L13.027342,12.1974366 L13.0066362,12.205 L12.9965982,12.2093451 L12.9965982,12.2093451 L12.9816362,12.215 L12.9365508,12.2337415 L12.9365508,12.2337415 L12.9626362,12.223 L12.9022652,12.2483593 L12.9022652,12.2483593 L12.8996362,12.249 L12.8412212,12.275655 L12.8412212,12.275655 L12.8142576,12.2882402 L12.8142576,12.2882402 L12.8756362,12.26 L12.7626362,12.313 L12.7279598,12.3307647 L12.7279598,12.3307647 L12.5705866,12.4175983 C12.4717052,12.4761203 12.3768003,12.540019 12.2861895,12.6088176 C12.2761063,12.6164745 12.2662099,12.6240879 12.2563656,12.6317597 L12.2232928,12.657911 L12.2232928,12.657911 L12.1886362,12.686 L12.1796362,12.693 L12.1618312,12.7085775 L12.1618312,12.7085775 L12.1306362,12.735 L12.0965922,12.7654712 L12.0965922,12.7654712 L12.0786362,12.781 L12.0966362,12.765 L12.0331138,12.824138 L12.0331138,12.824138 L12.098797,12.7634936 C12.0491485,12.8079812 12.0010674,12.8540499 11.9546188,12.9016021 L12.0256362,12.831 L11.9540616,12.9021727 L11.9540616,12.9021727 L11.8780448,12.9829651 L11.8193333,13.0496677 L11.8193333,13.0496677 L11.7956362,13.077 L11.8196362,13.049 L11.7646362,13.116 L11.7816362,13.094 L11.7640462,13.1162936 L11.7640462,13.1162936 L11.7466362,13.138 L11.7026362,13.194 L11.6976362,13.201 L11.6686362,13.24 L11.6570837,13.2572991 L11.6570837,13.2572991 L11.6346362,13.289 L11.5367449,13.4396017 C11.4674597,13.5533077 11.4056642,13.6716557 11.3518847,13.7938561 L11.3366362,13.828 L11.3166362,13.877 L11.2450942,14.0735477 C11.1080361,14.49444 11.0625957,14.9508882 11.1277013,15.4145 L11.1572775,15.5883484 L11.1586362,15.599 L9.16600233,14.1760702 C9.23343519,13.7727932 9.3499034,13.3825762 9.51021231,13.0132111 L5.83563616,9.74740932 L7.16436384,8.25259068 L10.6657176,11.3641958 C10.8030237,11.2342905 10.9480382,11.1118396 11.1002266,10.9976447 C11.0343535,10.6761441 11,10.3420839 11,10 C11,7.23857625 13.2385763,5 16,5 C18.7614237,5 21,7.23857625 21,10 C21,10.3423792 20.9655872,10.6767209 20.9000316,10.9997548 C21.0512249,11.1124106 21.1960918,11.2345677 21.3335936,11.3644401 L24.8356362,8.25259068 L26.1643638,9.74740932 L22.4907621,13.0133863 C22.7546865,13.622313 22.9009805,14.2940721 22.9009805,15 C22.9009805,15.3292599 22.868457,15.6577148 22.8038839,15.9805807 L21.8646362,20.675 L25.7682213,25.3598156 L24.2317787,26.6401844 L21.0388065,22.807736 C20.1305188,24.1451956 18.5999271,25 16.9009805,25 L15.0990195,25 C13.4000729,25 11.8694812,24.1451956 10.9611935,22.807736 L7.76822128,26.6401844 L6.23177872,25.3598156 L10.1346362,20.675 L9.51463616,17.575 L11.2986362,16.3 L12.1572775,20.5883484 L12.1893034,20.7305995 L12.1893034,20.7305995 L12.2278016,20.8699545 L12.2401938,20.9099368 L12.2401938,20.9099368 L12.2516362,20.946 L12.2546362,20.954 L12.2782601,21.022077 L12.2782601,21.022077 L12.2529896,20.9492885 C12.2743668,21.0135162 12.2978121,21.0766984 12.3232406,21.1387652 L12.2866362,21.044 L12.3513812,21.2051568 C12.7979856,22.2244097 13.785187,22.9279736 14.9213539,22.9947874 L15.0990195,23 L16.9009805,23 C18.2031335,23 19.3404554,22.1630874 19.7452036,20.9547 C19.766466,20.8912089 19.7856642,20.8268519 19.8027681,20.7615416 L19.8427225,20.5883484 L20.1597787,19 L20.1606362,18.999 L20.8427225,15.5883484 C20.8814664,15.3946289 20.9009805,15.197556 20.9009805,15 C20.9009805,14.7041332 20.8581506,14.4182698 20.7783526,14.1482718 L20.7303062,14.0000889 C20.6693785,13.8276912 20.5931402,13.6625254 20.5032252,13.5062254 C20.4968994,13.4952281 20.4904327,13.484151 20.4838974,13.4731195 L20.4726362,13.455 L20.4588129,13.4315483 L20.4588129,13.4315483 L20.4626362,13.439 L20.4123211,13.3582863 L20.4123211,13.3582863 L20.4496362,13.417 L20.4326571,13.3897577 L20.4326571,13.3897577 L20.4123211,13.3582863 L20.3916362,13.328 L20.3666362,13.291 L20.3456362,13.262 L20.3296362,13.24 L20.3146362,13.219 L20.2906362,13.187 L20.2539491,13.1387472 L20.2539491,13.1387472 L20.2176362,13.094 L20.2346362,13.116 L20.204193,13.0775917 L20.204193,13.0775917 L20.1529098,13.0178198 L20.1529098,13.0178198 L20.0605208,12.9182041 L19.9205533,12.7815662 C19.9036046,12.7661279 19.8864783,12.7508812 19.8691779,12.7358295 L19.8216362,12.696 L19.7974428,12.6753528 L19.7974428,12.6753528 L19.7746362,12.657 L19.7896362,12.67 L19.7240335,12.6175328 L19.6254161,12.5448349 L19.5469342,12.4916052 L19.493764,12.4574206 L19.493764,12.4574206 L19.4401025,12.4243746 L19.427861,12.4170831 C19.4124837,12.4079732 19.397018,12.3989968 19.3814655,12.3901553 L19.2868002,12.3385714 L19.2706362,12.33 L19.2380564,12.3137031 L19.2380564,12.3137031 L19.2066362,12.298 L19.2506362,12.32 L19.2063867,12.298199 L19.2063867,12.298199 L19.1366362,12.266 L19.1146362,12.256 L19.0986362,12.249 L19.1136362,12.255 L19.1004675,12.2494021 L19.1004675,12.2494021 L19.0616362,12.233 L19.0295689,12.2195534 L19.0295689,12.2195534 L19.0266362,12.218 L18.9329099,12.1821962 L18.851208,12.1536071 L18.8131881,12.1412037 L18.8131881,12.1412037 L18.7126362,12.111 L18.7056362,12.109 L18.7106362,12.11 L18.7126362,12.111 L18.7182977,12.1126824 L18.7106362,12.11 L18.7066362,12.109 L18.6846362,12.103 L18.6221164,12.0872376 L18.6221164,12.0872376 L18.4395261,12.0482056 L18.3766362,12.037 L18.3656362,12.036 L18.3686362,12.036 L18.3586362,12.035 L18.3449335,12.0326219 L18.3449335,12.0326219 L18.2896362,12.025 L18.3266362,12.03 L18.3586362,12.035 L18.3656362,12.036 L18.3266362,12.03 L18.2501928,12.0201077 L18.2501928,12.0201077 L18.2896362,12.025 L18.2388221,12.0188114 C18.1853778,12.0128218 18.1315089,12.0082363 18.0772533,12.0050927 L17.9009805,12 L14.0990195,12 C13.9923861,12 13.8858934,12.0056853 13.7799928,12.0170112 C13.780603,12.0185149 13.7808971,12.0188379 13.7811912,12.019161 L13.6650997,12.0315469 L13.5106711,12.058258 L13.3166511,12.1036968 L13.2965661,12.1091752 L13.2965661,12.1091752 L13.276547,12.1147839 L13.1516362,12.153 Z" id="bug" fill="#00BA39" fill-rule="nonzero"></path>
            <polygon id="arrow-in" fill="#00C6EB" points="3 11 3 21 10 16"></polygon>
            <polygon id="arrow-out" fill="#FF8900" points="24 11 24 21 31 16"></polygon>
        </g>
        <g id="Star" fill="#F0AF00">
            <polygon transform="translate(25.000000, 25.000000) rotate(16.000000) translate(-25.000000, -25.000000) " points="25 28.5 20.8855032 30.663119 21.6713022 26.0815595 18.3426044 22.836881 22.9427516 22.1684405 25 18 27.0572484 22.1684405 31.6573956 22.836881 28.3286978 26.0815595 29.1144968 30.663119"></polygon>
        </g>
    </g>
</svg>